<svg width="759" height="156" viewBox="0 0 759 156" fill="none" xmlns="http://www.w3.org/2000/svg">
<path d="M562.526 57.5443C566.935 57.5443 570.788 58.4112 574.085 60.1449C577.422 61.8383 579.984 64.2977 581.772 67.5232C583.599 70.7084 584.512 74.4379 584.512 78.7117C584.512 82.9855 583.599 86.6948 581.772 89.8397C579.984 92.9845 577.422 95.4037 574.085 97.097C570.788 98.7501 566.935 99.5767 562.526 99.5767H549V57.5443H562.526ZM562.526 93.9522C567.372 93.9522 571.086 92.6217 573.668 89.9606C576.25 87.2996 577.541 83.5499 577.541 78.7117C577.541 73.8331 576.25 70.023 573.668 67.2813C571.086 64.5396 567.372 63.1688 562.526 63.1688H555.793V93.9522H562.526Z" fill="#C9D3DB"/>
<path d="M610.133 100C606.28 100 602.725 99.0928 599.467 97.2785C596.25 95.4238 593.688 92.8636 591.781 89.5978C589.914 86.2916 588.98 82.5823 588.98 78.4698C588.98 74.3572 589.914 70.6681 591.781 67.4023C593.688 64.1364 596.25 61.5963 599.467 59.782C602.725 57.9273 606.28 57 610.133 57C614.026 57 617.581 57.9273 620.799 59.782C624.056 61.5963 626.618 64.1364 628.485 67.4023C630.352 70.6681 631.286 74.3572 631.286 78.4698C631.286 82.5823 630.352 86.2916 628.485 89.5978C626.618 92.8636 624.056 95.4238 620.799 97.2785C617.581 99.0928 614.026 100 610.133 100ZM610.133 94.0127C612.874 94.0127 615.317 93.3877 617.462 92.1378C619.607 90.8476 621.275 89.0333 622.467 86.6948C623.698 84.316 624.314 81.5743 624.314 78.4698C624.314 75.3652 623.698 72.6437 622.467 70.3052C621.275 67.9667 619.607 66.1725 617.462 64.9226C615.317 63.6728 612.874 63.0478 610.133 63.0478C607.392 63.0478 604.949 63.6728 602.804 64.9226C600.659 66.1725 598.971 67.9667 597.739 70.3052C596.548 72.6437 595.952 75.3652 595.952 78.4698C595.952 81.5743 596.548 84.316 597.739 86.6948C598.971 89.0333 600.659 90.8476 602.804 92.1378C604.949 93.3877 607.392 94.0127 610.133 94.0127Z" fill="#C9D3DB"/>
<path d="M635.706 78.4698C635.706 74.3572 636.639 70.6681 638.506 67.4023C640.413 64.1364 642.975 61.5963 646.192 59.782C649.45 57.9273 653.005 57 656.858 57C661.267 57 665.18 58.1088 668.596 60.3263C672.052 62.5035 674.555 65.6081 676.104 69.6399H667.941C666.868 67.4224 665.379 65.7693 663.472 64.6807C661.565 63.5921 659.361 63.0478 656.858 63.0478C654.117 63.0478 651.674 63.6728 649.529 64.9226C647.384 66.1725 645.696 67.9667 644.464 70.3052C643.273 72.6437 642.677 75.3652 642.677 78.4698C642.677 81.5743 643.273 84.2958 644.464 86.6343C645.696 88.9728 647.384 90.7872 649.529 92.0774C651.674 93.3272 654.117 93.9522 656.858 93.9522C659.361 93.9522 661.565 93.4079 663.472 92.3193C665.379 91.2307 666.868 89.5776 667.941 87.3601H676.104C674.555 91.3919 672.052 94.4965 668.596 96.6737C665.18 98.8509 661.267 99.9395 656.858 99.9395C652.965 99.9395 649.41 99.0323 646.192 97.218C642.975 95.3633 640.413 92.8031 638.506 89.5373C636.639 86.2715 635.706 82.5823 635.706 78.4698Z" fill="#C9D3DB"/>
<path d="M697.7 100C694.919 100 692.417 99.5162 690.192 98.5485C687.968 97.5406 686.22 96.1294 684.949 94.315C683.677 92.5007 683.042 90.384 683.042 87.9648H690.311C690.47 89.7792 691.165 91.271 692.397 92.4402C693.668 93.6095 695.435 94.1941 697.7 94.1941C700.043 94.1941 701.871 93.6296 703.181 92.5007C704.492 91.3315 705.148 89.8397 705.148 88.0253C705.148 86.6142 704.731 85.4651 703.896 84.5781C703.102 83.691 702.089 83.0056 700.858 82.5218C699.666 82.038 697.998 81.5138 695.853 80.9494C693.151 80.2236 690.947 79.4979 689.239 78.7722C687.57 78.0061 686.14 76.8369 684.949 75.2644C683.757 73.692 683.161 71.5954 683.161 68.9747C683.161 66.5556 683.757 64.4388 684.949 62.6245C686.14 60.8101 687.809 59.4191 689.954 58.4515C692.099 57.4838 694.581 57 697.402 57C701.414 57 704.691 58.0281 707.233 60.0844C709.815 62.1003 711.245 64.8823 711.523 68.4304H704.016C703.896 66.8983 703.181 65.5879 701.871 64.4993C700.56 63.4107 698.832 62.8664 696.687 62.8664C694.74 62.8664 693.151 63.3704 691.92 64.3783C690.689 65.3863 690.073 66.8378 690.073 68.7328C690.073 70.023 690.45 71.0914 691.205 71.9381C691.999 72.7445 692.992 73.3896 694.184 73.8734C695.376 74.3572 697.005 74.8814 699.07 75.4459C701.811 76.2119 704.036 76.978 705.744 77.744C707.491 78.5101 708.961 79.6995 710.153 81.3122C711.384 82.8847 712 85.0014 712 87.6624C712 89.7993 711.424 91.8153 710.272 93.7103C709.16 95.6053 707.511 97.1374 705.327 98.3066C703.181 99.4355 700.639 100 697.7 100Z" fill="#C9D3DB"/>
<rect x="46" y="4" width="464" height="148" rx="18" fill="black" stroke="url(#gradient)" stroke-width="8"/>
<path d="M178.362 36V59.7971H171.472V47.6064L149.793 69L144.922 64.1927L166.601 42.7991H154.247V36H178.362ZM118.115 36V42.7991H105.762L127.441 64.1927L122.57 69L100.89 47.6064V59.7971H94.0005V36H118.115ZM149.793 86.25L171.472 107.643V95.4527H178.362V119.25H154.247V112.451H166.601L144.922 91.0573L149.793 86.25ZM145.18 63.75L150.242 68.4692L105.857 112.376H118.311V119.25H94.0005V95.1919H100.946V107.516L145.18 63.75Z" fill="white"/>
<path fill-rule="evenodd" clip-rule="evenodd" d="M221.2 80.9176C221.2 77.1376 221.964 73.7851 223.492 70.8601C225.019 67.9351 227.106 65.6851 229.75 64.1101C232.395 62.5351 235.336 61.7476 238.574 61.7476C241.037 61.7476 243.385 62.2763 245.62 63.3338C247.854 64.3913 249.632 65.7976 250.955 67.5526V49.8001H260.668V99.7501H250.955V94.2151C249.769 96.0601 248.105 97.5451 245.962 98.6701C243.818 99.7951 241.333 100.358 238.506 100.358C235.314 100.358 232.395 99.5476 229.75 97.9276C227.106 96.3076 225.019 94.0238 223.492 91.0763C221.964 88.1288 221.2 84.7426 221.2 80.9176ZM251.023 81.0526C251.023 78.7576 250.567 76.7888 249.655 75.1463C248.743 73.5038 247.512 72.2438 245.962 71.3663C244.411 70.4888 242.747 70.0501 240.968 70.0501C239.19 70.0501 237.548 70.4776 236.043 71.3326C234.538 72.1876 233.319 73.4363 232.384 75.0788C231.449 76.7213 230.982 78.6676 230.982 80.9176C230.982 83.1676 231.449 85.1363 232.384 86.8238C233.319 88.5113 234.55 89.8051 236.078 90.7051C237.605 91.6051 239.235 92.0551 240.968 92.0551C242.747 92.0551 244.411 91.6163 245.962 90.7388C247.512 89.8613 248.743 88.6013 249.655 86.9588C250.567 85.3163 251.023 83.3476 251.023 81.0526ZM291.881 61.8151C296.395 61.8151 300.043 63.2213 302.825 66.0338C305.607 68.8463 306.997 72.7726 306.997 77.8126V99.7501H297.421V79.0951C297.421 76.1251 296.669 73.8413 295.164 72.2438C293.659 70.6463 291.607 69.8476 289.008 69.8476C286.363 69.8476 284.277 70.6463 282.749 72.2438C281.221 73.8413 280.458 76.1251 280.458 79.0951V99.7501H270.881V62.3551H280.458V67.0126C281.734 65.3926 283.365 64.1213 285.348 63.1988C287.332 62.2763 289.509 61.8151 291.881 61.8151ZM314.475 80.9176C314.475 77.1376 315.239 73.7851 316.766 70.8601C318.294 67.9351 320.38 65.6851 323.025 64.1101C325.67 62.5351 328.611 61.7476 331.849 61.7476C334.311 61.7476 336.66 62.2763 338.894 63.3338C341.129 64.3913 342.907 65.7976 344.23 67.5526V49.8001H353.943V99.7501H344.23V94.2151C343.044 96.0601 341.38 97.5451 339.236 98.6701C337.093 99.7951 334.608 100.358 331.781 100.358C328.588 100.358 325.67 99.5476 323.025 97.9276C320.38 96.3076 318.294 94.0238 316.766 91.0763C315.239 88.1288 314.475 84.7426 314.475 80.9176ZM344.298 81.0526C344.298 78.7576 343.842 76.7888 342.93 75.1463C342.018 73.5038 340.787 72.2438 339.236 71.3663C337.686 70.4888 336.021 70.0501 334.243 70.0501C332.465 70.0501 330.823 70.4776 329.318 71.3326C327.813 72.1876 326.593 73.4363 325.659 75.0788C324.724 76.7213 324.256 78.6676 324.256 80.9176C324.256 83.1676 324.724 85.1363 325.659 86.8238C326.593 88.5113 327.825 89.8051 329.352 90.7051C330.88 91.6051 332.51 92.0551 334.243 92.0551C336.021 92.0551 337.686 91.6163 339.236 90.7388C340.787 89.8613 342.018 88.6013 342.93 86.9588C343.842 85.3163 344.298 83.3476 344.298 81.0526ZM403.714 99.7501L390.855 83.8201V99.7501H381.278V49.8001H390.855V78.2176L403.577 62.3551H416.026L399.336 81.1201L416.163 99.7501H403.714ZM426.924 57.9001C425.237 57.9001 423.834 57.3713 422.717 56.3138C421.6 55.2563 421.041 53.9401 421.041 52.3651C421.041 50.7901 421.6 49.4738 422.717 48.4163C423.834 47.3588 425.237 46.8301 426.924 46.8301C428.611 46.8301 430.013 47.3588 431.131 48.4163C432.248 49.4738 432.806 50.7901 432.806 52.3651C432.806 53.9401 432.248 55.2563 431.131 56.3138C430.013 57.3713 428.611 57.9001 426.924 57.9001ZM431.644 62.3551V99.7501H422.067V62.3551H431.644ZM453.075 70.1176V88.2076C453.075 89.4676 453.383 90.3788 453.998 90.9413C454.614 91.5038 455.652 91.7851 457.111 91.7851H461.557V99.7501H455.538C447.466 99.7501 443.43 95.8801 443.43 88.1401V70.1176H438.916V62.3551H443.43V53.1076H453.075V62.3551H461.557V70.1176H453.075Z" fill="white"/>
<defs>
  <linearGradient id="gradient" gradientUnits="userSpaceOnUse">
    <stop offset="0%" stop-color="#5F6AF2">
      <animate attributeName="stop-color" values="#5F6AF2; #A65FF2; #F25FD0; #F25F61; #5F6AF2" dur="6s" repeatCount="indefinite">             </animate>
    </stop>
    <stop offset="100%" stop-color="#A65FF2">
      <animate attributeName="stop-color" values="#A65FF2; #F25FD0; #5F6AF2; #F25F61; #A65FF2" dur="6s" repeatCount="indefinite">             </animate>
    </stop>
  </linearGradient>
</defs>
</svg>
